{"glyphs":{"0":{"ha":753,"x_min":0,"x_max":694,"o":"m 339 1056 l 361 1056 q 673 880 590 1056 q 694 608 694 838 l 694 424 q 659 123 694 159 q 372 -24 565 -24 l 323 -24 q 43 106 142 -24 q 0 342 0 163 l 0 668 q 33 907 0 857 q 339 1056 123 1056 m 301 261 q 326 155 301 155 l 342 153 l 353 153 q 391 234 391 153 q 393 318 393 252 l 393 741 q 377 869 393 869 q 347 880 377 877 q 301 795 301 880 l 301 261 z "},"1":{"ha":552,"x_min":0,"x_max":486,"o":"m 317 1036 l 486 1036 l 486 0 l 198 0 l 198 540 q 179 722 198 722 q 27 749 158 749 l 0 749 l 0 871 q 285 1004 195 913 l 317 1036 z "},"2":{"ha":726,"x_min":0,"x_max":659,"o":"m 315 1058 q 646 876 567 1058 q 659 784 659 825 q 491 412 659 633 l 320 176 l 632 176 l 632 0 l 0 0 l 0 149 q 380 773 380 698 q 385 803 385 784 l 385 822 q 323 880 385 880 l 317 880 q 263 833 263 873 q 258 716 258 811 l 258 684 l 0 684 l 0 743 q 68 968 0 907 q 315 1058 149 1058 z "},"3":{"ha":764,"x_min":-3,"x_max":697,"o":"m 315 0 q 55 74 88 -7 q -3 273 -3 174 l -3 315 l 284 315 l 284 263 q 315 178 277 212 l 315 179 q 391 222 391 181 q 396 269 396 222 l 396 380 q 369 456 396 456 q 294 462 369 459 l 294 630 l 347 632 q 393 700 393 632 q 396 746 396 706 l 396 765 q 342 854 396 854 q 309 849 334 857 q 284 745 284 842 l -1 706 q 25 887 -3 811 q 326 1036 114 1028 q 602 968 541 1036 q 675 770 675 904 l 675 722 q 589 578 675 606 q 526 562 539 562 l 526 559 q 646 507 595 547 q 697 350 697 457 l 697 225 q 605 24 697 65 q 410 0 545 0 l 315 0 z "},"4":{"ha":759,"x_min":0,"x_max":689,"o":"m 388 1036 l 689 1036 l 689 0 l 388 0 l 388 434 l 339 434 l 339 667 l 388 667 l 388 1036 m 0 435 l 0 1036 l 296 1036 q 301 1028 301 1036 l 301 435 l 0 435 z "},"5":{"ha":766,"x_min":-3,"x_max":716,"o":"m 406 633 q 444 632 426 633 l 486 632 l 486 628 q 708 348 712 597 q 616 77 708 136 q 380 -5 514 -5 l 336 -5 q 24 158 98 -5 q 0 372 -3 237 l 298 370 q 317 182 298 182 q 347 172 332 172 l 358 172 q 401 212 401 177 q 407 318 407 252 l 407 429 l 406 430 l 406 633 m 350 434 l 0 435 l 0 1036 l 716 1036 l 716 827 l 301 827 l 301 632 l 350 632 l 350 434 z "},"6":{"ha":780,"x_min":0,"x_max":711,"o":"m 336 1056 l 363 1056 q 654 945 553 1056 q 711 684 711 884 l 410 684 l 410 749 q 380 877 410 877 q 355 880 365 880 q 304 804 304 880 q 301 654 301 731 l 301 370 q 320 163 301 163 q 350 153 334 153 l 361 153 q 404 193 404 158 q 410 299 410 233 l 410 410 l 358 410 l 358 570 q 711 329 711 577 q 618 58 711 117 q 382 -24 517 -24 l 339 -24 q 27 139 100 -24 q 0 397 0 218 l 0 638 q 38 912 0 880 q 336 1056 132 1056 z "},"7":{"ha":617,"x_min":0,"x_max":553,"o":"m 1 1036 l 553 1036 l 553 836 l 262 1 l 0 0 l 0 144 q 228 827 0 150 l 1 827 l 1 1036 z "},"8":{"ha":764,"x_min":-19,"x_max":697,"o":"m 332 180 q 391 222 391 186 q 396 269 396 222 l 396 380 q 369 456 396 456 q 339 464 369 459 l 339 462 q 309 454 309 457 q 282 378 282 454 l 282 267 q 288 220 282 220 q 332 180 288 189 m 311 1034 l 311 1036 l 326 1036 q 602 968 541 1036 q 675 770 675 904 l 675 722 q 589 578 675 606 q 526 562 539 562 l 526 559 q 646 507 595 547 q 697 350 697 457 l 697 225 q 605 24 697 65 q 410 0 545 0 l 368 0 l 368 -2 l 269 -2 q 73 22 134 -2 q -19 223 -19 63 l -19 348 q 33 505 -19 455 q 152 557 83 545 l 152 559 q 90 576 139 559 q 3 720 3 604 l 3 768 q 76 966 3 902 q 311 1034 131 1027 m 349 854 q 336 852 341 853 q 282 763 282 852 l 282 744 q 285 698 282 704 q 331 630 285 630 l 339 630 l 339 632 l 347 632 q 393 700 393 632 q 396 746 396 706 l 396 765 q 349 854 396 849 z "},"9":{"ha":780,"x_min":0,"x_max":711,"o":"m 374 -24 l 347 -24 q 57 87 157 -24 q 0 348 0 148 l 301 348 l 301 283 q 331 155 301 155 q 355 153 346 153 q 407 229 407 153 q 410 378 410 301 l 410 663 q 391 869 410 869 q 361 880 376 880 l 350 880 q 307 839 307 874 q 301 733 301 800 l 301 622 l 353 622 l 353 462 q 0 703 0 455 q 92 975 0 915 q 328 1056 194 1056 l 372 1056 q 684 893 610 1056 q 711 635 711 814 l 711 394 q 673 120 711 153 q 374 -24 578 -24 z "},"\u0000":{"ha":0,"x_min":0,"x_max":0,"o":""},"\u001d":{"ha":0,"x_min":0,"x_max":0,"o":""}," ":{"ha":345,"x_min":0,"x_max":0,"o":""}," ":{"ha":345,"x_min":0,"x_max":0,"o":""},"!":{"ha":456,"x_min":0,"x_max":0,"o":""},"\"":{"ha":456,"x_min":0,"x_max":0,"o":""},"#":{"ha":906,"x_min":0,"x_max":0,"o":""},"$":{"ha":688,"x_min":0,"x_max":0,"o":""},"%":{"ha":1092,"x_min":0,"x_max":0,"o":""},"&":{"ha":1141,"x_min":0,"x_max":0,"o":""},"'":{"ha":374,"x_min":0,"x_max":301,"o":"m 0 950 l 296 950 q 301 945 301 949 l 301 709 l 0 583 l 0 950 z "},"(":{"ha":514,"x_min":0,"x_max":0,"o":""},")":{"ha":514,"x_min":0,"x_max":0,"o":""},"*":{"ha":694,"x_min":0,"x_max":0,"o":""},"+":{"ha":688,"x_min":0,"x_max":0,"o":""},",":{"ha":374,"x_min":0,"x_max":301,"o":"m 0 241 l 296 241 q 301 235 301 240 l 301 0 l 0 -127 l 0 241 z "},"-":{"ha":753,"x_min":0,"x_max":685,"o":"m 0 607 l 680 607 q 685 602 685 606 l 685 366 l 0 366 l 0 607 z "},"­":{"ha":753,"x_min":0,"x_max":685,"o":"m 0 607 l 680 607 q 685 602 685 606 l 685 366 l 0 366 l 0 607 z "},".":{"ha":374,"x_min":0,"x_max":301,"o":"m 0 241 l 296 241 q 301 235 301 240 l 301 0 l 0 0 l 0 241 z "},"/":{"ha":386,"x_min":0,"x_max":0,"o":""},":":{"ha":378,"x_min":0,"x_max":0,"o":""},";":{"ha":378,"x_min":0,"x_max":0,"o":""},";":{"ha":378,"x_min":0,"x_max":0,"o":""},"<":{"ha":688,"x_min":0,"x_max":0,"o":""},"=":{"ha":688,"x_min":0,"x_max":0,"o":""},">":{"ha":688,"x_min":0,"x_max":0,"o":""},"?":{"ha":507,"x_min":0,"x_max":0,"o":""},"@":{"ha":1369,"x_min":0,"x_max":0,"o":""},"A":{"ha":818,"x_min":0,"x_max":757,"o":"m 152 1034 l 583 1034 q 600 947 590 1034 q 757 0 610 902 l 480 0 q 467 90 473 0 q 453 193 464 90 l 353 193 l 353 195 q 372 366 361 295 l 431 366 q 380 795 431 377 l 377 795 q 282 0 377 774 l 0 0 q 152 1034 1 12 z "},"B":{"ha":764,"x_min":0,"x_max":697,"o":"m 0 1036 l 326 1036 q 602 968 541 1036 q 675 770 675 904 l 675 722 q 589 578 675 606 q 526 562 539 562 l 526 559 q 646 507 595 547 q 697 350 697 457 l 697 225 q 605 24 697 65 q 410 0 545 0 l 0 0 l 0 1036 m 301 857 l 301 854 l 301 179 l 307 179 q 391 222 391 179 q 396 269 396 222 l 396 380 q 369 456 396 456 q 339 464 369 459 l 339 632 l 347 632 q 393 700 393 632 q 396 746 396 706 l 396 765 q 342 854 396 854 q 301 857 330 857 z "},"C":{"ha":779,"x_min":0,"x_max":711,"o":"m 331 1048 l 372 1048 q 681 899 587 1048 q 711 676 711 819 l 711 578 l 410 578 l 410 749 q 382 869 410 869 q 372 871 378 871 l 347 871 q 304 790 304 871 l 304 234 q 331 155 304 163 q 355 153 346 153 l 363 153 q 410 245 410 153 l 410 410 l 711 410 l 711 367 q 659 98 711 151 q 372 -24 554 -24 l 342 -24 q 54 90 146 -24 q 0 446 0 139 l 0 554 q 24 882 0 855 q 190 1023 70 978 q 331 1048 262 1048 z "},"D":{"ha":760,"x_min":0,"x_max":697,"o":"m 0 1031 l 355 1031 q 358 1028 358 1031 q 361 1031 361 1028 q 564 998 538 1020 q 667 917 627 979 q 697 678 697 877 l 697 307 q 656 73 697 102 q 407 0 608 0 l 0 0 l 0 1031 m 304 854 l 304 179 l 320 179 q 391 241 391 179 q 396 363 396 279 l 396 692 q 377 836 396 836 q 304 854 377 849 z "},"E":{"ha":597,"x_min":0,"x_max":518,"o":"m 0 1036 l 499 1036 l 499 827 l 301 827 l 301 632 l 486 632 l 486 434 l 301 434 l 301 209 l 518 209 l 518 0 l 0 0 l 0 1036 z "},"F":{"ha":576,"x_min":0,"x_max":507,"o":"m 0 1036 l 507 1036 l 507 827 l 301 827 l 301 632 l 486 632 l 486 439 q 480 434 486 434 l 301 434 l 301 0 l 0 0 l 0 1036 z "},"G":{"ha":780,"x_min":0,"x_max":711,"o":"m 336 1056 l 363 1056 q 654 945 553 1056 q 711 684 711 884 l 410 684 l 410 749 q 380 877 410 877 q 355 880 365 880 q 304 804 304 880 q 301 654 301 731 l 301 370 q 320 163 301 163 q 350 153 334 153 l 361 153 q 404 193 404 158 q 410 299 410 233 l 410 410 l 358 410 l 358 570 l 711 570 l 711 568 l 711 329 q 618 58 711 117 q 382 -24 517 -24 l 339 -24 q 27 139 100 -24 q 0 397 0 218 l 0 638 q 38 912 0 880 q 336 1056 132 1056 z "},"H":{"ha":759,"x_min":0,"x_max":689,"o":"m 0 1036 l 296 1036 q 301 1028 301 1036 l 301 0 l 0 0 l 0 1036 m 388 1036 l 689 1036 l 689 0 l 388 0 l 388 434 l 339 434 l 339 667 l 388 667 l 388 1036 z "},"I":{"ha":374,"x_min":0,"x_max":301,"o":"m 0 1036 l 296 1036 q 301 1031 301 1036 l 301 0 l 0 0 l 0 1036 z "},"J":{"ha":479,"x_min":0,"x_max":415,"o":"m 114 1036 l 415 1036 l 415 233 q 382 68 415 91 q 195 0 338 0 l 0 0 l 0 176 q 5 182 1 182 l 57 182 q 111 236 111 190 q 114 279 114 248 l 114 1036 z "},"K":{"ha":801,"x_min":0,"x_max":730,"o":"m 0 1036 l 296 1036 q 301 1031 301 1036 l 301 646 l 304 646 q 431 1036 304 654 l 713 1036 l 543 567 l 730 0 l 418 0 l 304 426 l 301 426 l 301 0 l 0 0 l 0 1036 z "},"L":{"ha":549,"x_min":0,"x_max":483,"o":"m 3 1031 l 301 1031 l 301 209 l 483 209 l 483 0 l 5 0 l 0 3 l 3 8 l 3 1031 z "},"M":{"ha":998,"x_min":0,"x_max":925,"o":"m 0 1036 l 388 1036 q 464 564 407 929 l 467 564 q 532 1036 467 574 l 920 1036 q 925 1031 925 1036 l 925 0 l 659 0 l 659 665 l 656 665 q 559 0 656 652 l 369 0 l 266 656 l 263 656 l 263 0 l 0 0 l 0 1036 z "},"N":{"ha":743,"x_min":0,"x_max":670,"o":"m 0 1036 l 252 1036 l 415 575 l 418 575 l 418 1036 l 665 1036 q 670 1031 670 1036 l 670 0 l 404 0 l 255 456 l 252 456 l 252 0 l 0 0 l 0 1036 z "},"O":{"ha":753,"x_min":0,"x_max":694,"o":"m 339 1056 l 361 1056 q 673 880 590 1056 q 694 608 694 838 l 694 424 q 659 123 694 159 q 372 -24 565 -24 l 323 -24 q 43 106 142 -24 q 0 342 0 163 l 0 668 q 33 907 0 857 q 339 1056 123 1056 m 301 261 q 326 155 301 155 l 342 153 l 353 153 q 391 234 391 153 q 393 318 393 252 l 393 741 q 377 869 393 869 q 347 880 377 877 q 301 795 301 880 l 301 261 z "},"P":{"ha":717,"x_min":0,"x_max":648,"o":"m 5 1036 l 328 1036 q 616 939 560 1036 q 648 738 648 893 l 648 667 q 583 464 648 495 q 355 415 524 415 l 342 415 l 342 597 q 396 689 396 597 l 396 751 q 372 844 396 844 q 309 857 366 855 l 304 857 l 304 854 q 301 513 304 643 q 304 11 304 326 l 304 0 l 0 0 l 0 1031 q 5 1036 1 1036 z "},"Q":{"ha":751,"x_min":-3,"x_max":692,"o":"m 328 1053 l 358 1053 q 667 882 583 1053 q 692 597 692 840 l 692 454 q 667 142 692 180 q 545 14 629 60 q 496 -5 501 -5 q 543 -105 531 -77 l 328 -105 q 285 -24 295 -24 q 79 58 186 -24 q 0 267 0 133 q -3 342 -3 275 l -3 679 q 41 920 -3 876 q 328 1053 134 1053 m 298 245 q 331 150 298 150 l 350 150 q 388 231 388 150 q 391 359 391 282 l 391 709 q 369 871 391 871 q 345 877 357 877 q 298 801 298 877 l 298 245 z "},"R":{"ha":738,"x_min":0,"x_max":670,"o":"m 0 1036 l 269 1036 q 572 993 529 1036 q 670 762 670 936 l 670 735 q 600 562 670 589 q 521 543 553 543 l 521 537 q 621 494 564 532 q 670 361 670 449 l 670 0 l 391 0 l 391 328 q 358 458 391 458 q 336 464 345 464 l 336 632 q 385 670 379 632 q 391 735 391 694 l 391 768 q 366 844 391 844 q 301 857 366 854 l 301 0 l 0 0 l 0 1036 z "},"S":{"ha":738,"x_min":0,"x_max":686,"o":"m 309 1061 l 342 1061 q 618 966 524 1061 q 662 782 662 918 l 662 725 l 382 725 l 382 782 q 363 877 382 877 q 331 885 363 884 q 285 820 290 885 l 285 787 q 347 687 285 717 q 562 557 503 600 q 667 427 639 507 q 686 296 686 360 l 686 245 q 613 55 686 102 q 380 -18 511 -18 l 331 -18 q 54 96 153 -18 q 11 296 11 160 l 11 375 l 290 375 l 290 280 q 309 169 290 169 q 345 158 309 160 l 347 158 q 401 242 401 158 q 347 380 401 357 q 114 527 294 418 q 0 768 0 606 q 125 1021 0 974 q 309 1061 205 1061 z "},"T":{"ha":731,"x_min":0,"x_max":656,"o":"m 5 1034 l 651 1034 q 656 1028 656 1033 l 656 825 l 480 825 l 480 0 l 182 0 q 176 5 176 0 l 176 825 l 0 825 l 0 1028 q 5 1034 1 1034 z "},"U":{"ha":747,"x_min":0,"x_max":681,"o":"m 0 1034 l 298 1034 l 298 252 q 331 157 298 157 l 339 157 q 380 222 380 157 q 382 293 382 239 l 382 1034 l 681 1034 l 681 320 q 659 136 681 178 q 353 -19 576 -19 l 350 -19 q 19 146 90 -13 q 0 339 0 182 l 0 1034 z "},"V":{"ha":795,"x_min":-28,"x_max":753,"o":"m -28 1036 l 289 1036 q 365 328 365 417 l 368 328 q 435 1036 397 727 l 753 1036 q 601 0 609 64 l 148 0 q 126 117 141 0 q -28 1036 123 119 z "},"W":{"ha":1194,"x_min":-37,"x_max":1149,"o":"m -37 1036 l 256 1036 q 313 353 313 368 l 316 353 q 397 1036 349 730 l 707 1036 q 718 958 714 1036 q 774 331 726 901 l 777 331 q 856 1036 777 481 l 1149 1036 q 1016 0 1103 664 l 642 0 q 552 526 601 180 l 549 526 q 471 0 541 453 l 96 0 l -37 1036 z "},"X":{"ha":751,"x_min":-18,"x_max":703,"o":"m -18 1036 l 269 1036 q 296 922 276 1036 q 332 765 313 870 l 337 765 q 397 1036 337 776 l 649 1036 l 649 1034 q 546 572 557 635 l 703 0 l 427 0 q 380 149 421 0 q 337 361 337 345 q 323 279 330 361 l 275 0 l -18 0 q 90 581 87 557 l -18 1036 z "},"Y":{"ha":777,"x_min":0,"x_max":705,"o":"m 5 1042 l 271 1042 q 350 806 279 1042 q 488 374 472 438 l 488 5 q 483 0 488 0 l 214 0 q 209 5 209 0 l 209 372 q 212 374 209 374 l 0 1039 l 5 1042 m 700 1042 q 705 1036 705 1041 q 515 456 578 656 l 510 456 q 385 844 488 529 q 431 1042 410 958 l 700 1042 z "},"Z":{"ha":617,"x_min":0,"x_max":553,"o":"m 1 1036 l 553 1036 l 553 836 l 331 209 l 553 209 l 553 0 l 0 0 l 0 144 q 228 827 0 150 l 1 827 l 1 1036 z "},"[":{"ha":514,"x_min":0,"x_max":0,"o":""},"\\":{"ha":386,"x_min":0,"x_max":0,"o":""},"]":{"ha":514,"x_min":0,"x_max":0,"o":""},"^":{"ha":688,"x_min":0,"x_max":0,"o":""},"_":{"ha":694,"x_min":0,"x_max":0,"o":""},"`":{"ha":694,"x_min":0,"x_max":0,"o":""},"a":{"ha":818,"x_min":0,"x_max":757,"o":"m 152 1034 l 583 1034 q 600 947 590 1034 q 757 0 610 902 l 480 0 q 467 90 473 0 q 453 193 464 90 l 353 193 l 353 195 q 372 366 361 295 l 431 366 q 380 795 431 377 l 377 795 q 282 0 377 774 l 0 0 q 152 1034 1 12 z "},"b":{"ha":764,"x_min":0,"x_max":697,"o":"m 0 1036 l 326 1036 q 602 968 541 1036 q 675 770 675 904 l 675 722 q 589 578 675 606 q 526 562 539 562 l 526 559 q 646 507 595 547 q 697 350 697 457 l 697 225 q 605 24 697 65 q 410 0 545 0 l 0 0 l 0 1036 m 301 857 l 301 854 l 301 179 l 307 179 q 391 222 391 179 q 396 269 396 222 l 396 380 q 369 456 396 456 q 339 464 369 459 l 339 632 l 347 632 q 393 700 393 632 q 396 746 396 706 l 396 765 q 342 854 396 854 q 301 857 330 857 z "},"c":{"ha":779,"x_min":0,"x_max":711,"o":"m 331 1048 l 372 1048 q 681 899 587 1048 q 711 676 711 819 l 711 578 l 410 578 l 410 749 q 382 869 410 869 q 372 871 378 871 l 347 871 q 304 790 304 871 l 304 234 q 331 155 304 163 q 355 153 346 153 l 363 153 q 410 245 410 153 l 410 410 l 711 410 l 711 367 q 659 98 711 151 q 372 -24 554 -24 l 342 -24 q 54 90 146 -24 q 0 446 0 139 l 0 554 q 24 882 0 855 q 190 1023 70 978 q 331 1048 262 1048 z "},"d":{"ha":760,"x_min":0,"x_max":697,"o":"m 0 1031 l 355 1031 q 358 1028 358 1031 q 361 1031 361 1028 q 564 998 538 1020 q 667 917 627 979 q 697 678 697 877 l 697 307 q 656 73 697 102 q 407 0 608 0 l 0 0 l 0 1031 m 304 854 l 304 179 l 320 179 q 391 241 391 179 q 396 363 396 279 l 396 692 q 377 836 396 836 q 304 854 377 849 z "},"e":{"ha":597,"x_min":0,"x_max":518,"o":"m 0 1036 l 499 1036 l 499 827 l 301 827 l 301 632 l 486 632 l 486 434 l 301 434 l 301 209 l 518 209 l 518 0 l 0 0 l 0 1036 z "},"f":{"ha":576,"x_min":0,"x_max":507,"o":"m 0 1036 l 507 1036 l 507 827 l 301 827 l 301 632 l 486 632 l 486 439 q 480 434 486 434 l 301 434 l 301 0 l 0 0 l 0 1036 z "},"g":{"ha":780,"x_min":0,"x_max":711,"o":"m 336 1056 l 363 1056 q 654 945 553 1056 q 711 684 711 884 l 410 684 l 410 749 q 380 877 410 877 q 355 880 365 880 q 304 804 304 880 q 301 654 301 731 l 301 370 q 320 163 301 163 q 350 153 334 153 l 361 153 q 404 193 404 158 q 410 299 410 233 l 410 410 l 358 410 l 358 570 l 711 570 l 711 568 l 711 329 q 618 58 711 117 q 382 -24 517 -24 l 339 -24 q 27 139 100 -24 q 0 397 0 218 l 0 638 q 38 912 0 880 q 336 1056 132 1056 z "},"h":{"ha":759,"x_min":0,"x_max":689,"o":"m 0 1036 l 296 1036 q 301 1028 301 1036 l 301 0 l 0 0 l 0 1036 m 388 1036 l 689 1036 l 689 0 l 388 0 l 388 434 l 339 434 l 339 667 l 388 667 l 388 1036 z "},"i":{"ha":374,"x_min":0,"x_max":301,"o":"m 0 1036 l 296 1036 q 301 1031 301 1036 l 301 0 l 0 0 l 0 1036 z "},"j":{"ha":479,"x_min":0,"x_max":415,"o":"m 114 1036 l 415 1036 l 415 233 q 382 68 415 91 q 195 0 338 0 l 0 0 l 0 176 q 5 182 1 182 l 57 182 q 111 236 111 190 q 114 279 114 248 l 114 1036 z "},"k":{"ha":801,"x_min":0,"x_max":730,"o":"m 0 1036 l 296 1036 q 301 1031 301 1036 l 301 646 l 304 646 q 431 1036 304 654 l 713 1036 l 543 567 l 730 0 l 418 0 l 304 426 l 301 426 l 301 0 l 0 0 l 0 1036 z "},"l":{"ha":549,"x_min":0,"x_max":483,"o":"m 3 1031 l 301 1031 l 301 209 l 483 209 l 483 0 l 5 0 l 0 3 l 3 8 l 3 1031 z "},"m":{"ha":998,"x_min":0,"x_max":925,"o":"m 0 1036 l 388 1036 q 464 564 407 929 l 467 564 q 532 1036 467 574 l 920 1036 q 925 1031 925 1036 l 925 0 l 659 0 l 659 665 l 656 665 q 559 0 656 652 l 369 0 l 266 656 l 263 656 l 263 0 l 0 0 l 0 1036 z "},"n":{"ha":743,"x_min":0,"x_max":670,"o":"m 0 1036 l 252 1036 l 415 575 l 418 575 l 418 1036 l 665 1036 q 670 1031 670 1036 l 670 0 l 404 0 l 255 456 l 252 456 l 252 0 l 0 0 l 0 1036 z "},"o":{"ha":753,"x_min":0,"x_max":694,"o":"m 339 1056 l 361 1056 q 673 880 590 1056 q 694 608 694 838 l 694 424 q 659 123 694 159 q 372 -24 565 -24 l 323 -24 q 43 106 142 -24 q 0 342 0 163 l 0 668 q 33 907 0 857 q 339 1056 123 1056 m 301 261 q 326 155 301 155 l 342 153 l 353 153 q 391 234 391 153 q 393 318 393 252 l 393 741 q 377 869 393 869 q 347 880 377 877 q 301 795 301 880 l 301 261 z "},"p":{"ha":717,"x_min":0,"x_max":648,"o":"m 5 1036 l 328 1036 q 616 939 560 1036 q 648 738 648 893 l 648 667 q 583 464 648 495 q 355 415 524 415 l 342 415 l 342 597 q 396 689 396 597 l 396 751 q 372 844 396 844 q 309 857 366 855 l 304 857 l 304 854 q 301 513 304 643 q 304 11 304 326 l 304 0 l 0 0 l 0 1031 q 5 1036 1 1036 z "},"q":{"ha":751,"x_min":-3,"x_max":692,"o":"m 328 1053 l 358 1053 q 667 882 583 1053 q 692 597 692 840 l 692 454 q 667 142 692 180 q 545 14 629 60 q 496 -5 501 -5 q 543 -105 531 -77 l 328 -105 q 285 -24 295 -24 q 79 58 186 -24 q 0 267 0 133 q -3 342 -3 275 l -3 679 q 41 920 -3 876 q 328 1053 134 1053 m 298 245 q 331 150 298 150 l 350 150 q 388 231 388 150 q 391 359 391 282 l 391 709 q 369 871 391 871 q 345 877 357 877 q 298 801 298 877 l 298 245 z "},"r":{"ha":738,"x_min":0,"x_max":670,"o":"m 0 1036 l 269 1036 q 572 993 529 1036 q 670 762 670 936 l 670 735 q 600 562 670 589 q 521 543 553 543 l 521 537 q 621 494 564 532 q 670 361 670 449 l 670 0 l 391 0 l 391 328 q 358 458 391 458 q 336 464 345 464 l 336 632 q 385 670 379 632 q 391 735 391 694 l 391 768 q 366 844 391 844 q 301 857 366 854 l 301 0 l 0 0 l 0 1036 z "},"s":{"ha":738,"x_min":0,"x_max":686,"o":"m 309 1061 l 342 1061 q 618 966 524 1061 q 662 782 662 918 l 662 725 l 382 725 l 382 782 q 363 877 382 877 q 331 885 363 884 q 285 820 290 885 l 285 787 q 347 687 285 717 q 562 557 503 600 q 667 427 639 507 q 686 296 686 360 l 686 245 q 613 55 686 102 q 380 -18 511 -18 l 331 -18 q 54 96 153 -18 q 11 296 11 160 l 11 375 l 290 375 l 290 280 q 309 169 290 169 q 345 158 309 160 l 347 158 q 401 242 401 158 q 347 380 401 357 q 114 527 294 418 q 0 768 0 606 q 125 1021 0 974 q 309 1061 205 1061 z "},"t":{"ha":731,"x_min":0,"x_max":656,"o":"m 5 1034 l 651 1034 q 656 1028 656 1033 l 656 825 l 480 825 l 480 0 l 182 0 q 176 5 176 0 l 176 825 l 0 825 l 0 1028 q 5 1034 1 1034 z "},"u":{"ha":747,"x_min":0,"x_max":681,"o":"m 0 1034 l 298 1034 l 298 252 q 331 157 298 157 l 339 157 q 380 222 380 157 q 382 293 382 239 l 382 1034 l 681 1034 l 681 320 q 659 136 681 178 q 353 -19 576 -19 l 350 -19 q 19 146 90 -13 q 0 339 0 182 l 0 1034 z "},"v":{"ha":795,"x_min":-28,"x_max":753,"o":"m -28 1036 l 289 1036 q 365 328 365 417 l 368 328 q 435 1036 397 727 l 753 1036 q 601 0 609 64 l 148 0 q 126 117 141 0 q -28 1036 123 119 z "},"w":{"ha":1194,"x_min":-37,"x_max":1149,"o":"m -37 1036 l 256 1036 q 313 353 313 368 l 316 353 q 397 1036 349 730 l 707 1036 q 718 958 714 1036 q 774 331 726 901 l 777 331 q 856 1036 777 481 l 1149 1036 q 1016 0 1103 664 l 642 0 q 552 526 601 180 l 549 526 q 471 0 541 453 l 96 0 l -37 1036 z "},"x":{"ha":751,"x_min":-18,"x_max":703,"o":"m -18 1036 l 269 1036 q 296 922 276 1036 q 332 765 313 870 l 337 765 q 397 1036 337 776 l 649 1036 l 649 1034 q 546 572 557 635 l 703 0 l 427 0 q 380 149 421 0 q 337 361 337 345 q 323 279 330 361 l 275 0 l -18 0 q 90 581 87 557 l -18 1036 z "},"y":{"ha":777,"x_min":0,"x_max":705,"o":"m 5 1042 l 271 1042 q 350 806 279 1042 q 488 374 472 438 l 488 5 q 483 0 488 0 l 214 0 q 209 5 209 0 l 209 372 q 212 374 209 374 l 0 1039 l 5 1042 m 700 1042 q 705 1036 705 1041 q 515 456 578 656 l 510 456 q 385 844 488 529 q 431 1042 410 958 l 700 1042 z "},"z":{"ha":617,"x_min":0,"x_max":553,"o":"m 1 1036 l 553 1036 l 553 836 l 331 209 l 553 209 l 553 0 l 0 0 l 0 144 q 228 827 0 150 l 1 827 l 1 1036 z "},"{":{"ha":688,"x_min":0,"x_max":0,"o":""},"|":{"ha":688,"x_min":0,"x_max":0,"o":""},"}":{"ha":688,"x_min":0,"x_max":0,"o":""},"~":{"ha":688,"x_min":0,"x_max":0,"o":""},"¡":{"ha":456,"x_min":0,"x_max":0,"o":""},"¢":{"ha":772,"x_min":0,"x_max":0,"o":""},"£":{"ha":688,"x_min":0,"x_max":0,"o":""},"¤":{"ha":688,"x_min":0,"x_max":0,"o":""},"¥":{"ha":856,"x_min":0,"x_max":0,"o":""},"¦":{"ha":688,"x_min":0,"x_max":0,"o":""},"§":{"ha":688,"x_min":0,"x_max":0,"o":""},"¨":{"ha":694,"x_min":0,"x_max":0,"o":""},"©":{"ha":1135,"x_min":0,"x_max":0,"o":""},"ª":{"ha":439,"x_min":0,"x_max":0,"o":""},"«":{"ha":640,"x_min":0,"x_max":0,"o":""},"¬":{"ha":688,"x_min":0,"x_max":0,"o":""},"®":{"ha":1135,"x_min":0,"x_max":0,"o":""},"¯":{"ha":454,"x_min":0,"x_max":0,"o":""},"°":{"ha":457,"x_min":0,"x_max":0,"o":""},"±":{"ha":688,"x_min":0,"x_max":0,"o":""},"²":{"ha":688,"x_min":0,"x_max":0,"o":""},"³":{"ha":688,"x_min":0,"x_max":0,"o":""},"´":{"ha":694,"x_min":0,"x_max":0,"o":""},"µ":{"ha":800,"x_min":0,"x_max":0,"o":""},"¶":{"ha":694,"x_min":0,"x_max":0,"o":""},"·":{"ha":345,"x_min":0,"x_max":0,"o":""},"∙":{"ha":345,"x_min":0,"x_max":0,"o":""},"¸":{"ha":694,"x_min":0,"x_max":0,"o":""},"¹":{"ha":688,"x_min":0,"x_max":0,"o":""},"º":{"ha":487,"x_min":0,"x_max":0,"o":""},"»":{"ha":640,"x_min":0,"x_max":0,"o":""},"¼":{"ha":1158,"x_min":0,"x_max":0,"o":""},"½":{"ha":1332,"x_min":0,"x_max":0,"o":""},"¾":{"ha":1158,"x_min":0,"x_max":0,"o":""},"¿":{"ha":507,"x_min":0,"x_max":0,"o":""},"À":{"ha":1044,"x_min":0,"x_max":0,"o":""},"Á":{"ha":1044,"x_min":0,"x_max":0,"o":""},"Â":{"ha":1044,"x_min":0,"x_max":0,"o":""},"Ã":{"ha":1044,"x_min":0,"x_max":0,"o":""},"Ä":{"ha":1044,"x_min":0,"x_max":0,"o":""},"Å":{"ha":1044,"x_min":0,"x_max":0,"o":""},"Æ":{"ha":1436,"x_min":0,"x_max":0,"o":""},"Ç":{"ha":949,"x_min":0,"x_max":0,"o":""},"È":{"ha":781,"x_min":0,"x_max":0,"o":""},"É":{"ha":781,"x_min":0,"x_max":0,"o":""},"Ê":{"ha":781,"x_min":0,"x_max":0,"o":""},"Ë":{"ha":781,"x_min":0,"x_max":0,"o":""},"Ì":{"ha":446,"x_min":0,"x_max":0,"o":""},"Í":{"ha":446,"x_min":0,"x_max":0,"o":""},"Î":{"ha":446,"x_min":0,"x_max":0,"o":""},"Ï":{"ha":446,"x_min":0,"x_max":0,"o":""},"Ð":{"ha":1029,"x_min":0,"x_max":0,"o":""},"Ñ":{"ha":1054,"x_min":0,"x_max":0,"o":""},"Ò":{"ha":1095,"x_min":0,"x_max":0,"o":""},"Ó":{"ha":1095,"x_min":0,"x_max":0,"o":""},"Ô":{"ha":1095,"x_min":0,"x_max":0,"o":""},"Õ":{"ha":1095,"x_min":0,"x_max":0,"o":""},"Ö":{"ha":1095,"x_min":0,"x_max":0,"o":""},"×":{"ha":688,"x_min":0,"x_max":0,"o":""},"Ø":{"ha":1095,"x_min":0,"x_max":0,"o":""},"Ù":{"ha":1018,"x_min":0,"x_max":0,"o":""},"Ú":{"ha":1018,"x_min":0,"x_max":0,"o":""},"Û":{"ha":1018,"x_min":0,"x_max":0,"o":""},"Ü":{"ha":1018,"x_min":0,"x_max":0,"o":""},"Ý":{"ha":836,"x_min":0,"x_max":0,"o":""},"Þ":{"ha":760,"x_min":0,"x_max":0,"o":""},"ß":{"ha":848,"x_min":0,"x_max":0,"o":""},"à":{"ha":625,"x_min":0,"x_max":0,"o":""},"á":{"ha":625,"x_min":0,"x_max":0,"o":""},"â":{"ha":625,"x_min":0,"x_max":0,"o":""},"ã":{"ha":625,"x_min":0,"x_max":0,"o":""},"ä":{"ha":625,"x_min":0,"x_max":0,"o":""},"å":{"ha":625,"x_min":0,"x_max":0,"o":""},"æ":{"ha":986,"x_min":0,"x_max":0,"o":""},"ç":{"ha":614,"x_min":0,"x_max":0,"o":""},"è":{"ha":616,"x_min":0,"x_max":0,"o":""},"é":{"ha":616,"x_min":0,"x_max":0,"o":""},"ê":{"ha":616,"x_min":0,"x_max":0,"o":""},"ë":{"ha":616,"x_min":0,"x_max":0,"o":""},"ì":{"ha":349,"x_min":0,"x_max":0,"o":""},"í":{"ha":349,"x_min":0,"x_max":0,"o":""},"î":{"ha":349,"x_min":0,"x_max":0,"o":""},"ï":{"ha":349,"x_min":0,"x_max":0,"o":""},"ð":{"ha":772,"x_min":0,"x_max":0,"o":""},"ñ":{"ha":751,"x_min":0,"x_max":0,"o":""},"ò":{"ha":685,"x_min":0,"x_max":0,"o":""},"ó":{"ha":685,"x_min":0,"x_max":0,"o":""},"ô":{"ha":685,"x_min":0,"x_max":0,"o":""},"õ":{"ha":685,"x_min":0,"x_max":0,"o":""},"ö":{"ha":685,"x_min":0,"x_max":0,"o":""},"÷":{"ha":688,"x_min":0,"x_max":0,"o":""},"ø":{"ha":685,"x_min":0,"x_max":0,"o":""},"ù":{"ha":718,"x_min":0,"x_max":0,"o":""},"ú":{"ha":718,"x_min":0,"x_max":0,"o":""},"û":{"ha":718,"x_min":0,"x_max":0,"o":""},"ü":{"ha":718,"x_min":0,"x_max":0,"o":""},"ý":{"ha":589,"x_min":0,"x_max":0,"o":""},"þ":{"ha":685,"x_min":0,"x_max":0,"o":""},"ÿ":{"ha":589,"x_min":0,"x_max":0,"o":""},"ı":{"ha":349,"x_min":0,"x_max":0,"o":""},"ˆ":{"ha":694,"x_min":0,"x_max":0,"o":""},"ˇ":{"ha":694,"x_min":0,"x_max":0,"o":""},"ˉ":{"ha":694,"x_min":0,"x_max":0,"o":""},"˘":{"ha":694,"x_min":0,"x_max":0,"o":""},"˙":{"ha":694,"x_min":0,"x_max":0,"o":""},"˚":{"ha":694,"x_min":0,"x_max":0,"o":""},"˛":{"ha":694,"x_min":0,"x_max":0,"o":""},"˜":{"ha":694,"x_min":0,"x_max":0,"o":""},"˝":{"ha":694,"x_min":0,"x_max":0,"o":""},"–":{"ha":751,"x_min":0,"x_max":0,"o":""},"—":{"ha":1389,"x_min":0,"x_max":0,"o":""},"‘":{"ha":378,"x_min":0,"x_max":0,"o":""},"’":{"ha":378,"x_min":0,"x_max":0,"o":""},"‚":{"ha":378,"x_min":0,"x_max":0,"o":""},"“":{"ha":617,"x_min":0,"x_max":0,"o":""},"”":{"ha":617,"x_min":0,"x_max":0,"o":""},"„":{"ha":617,"x_min":0,"x_max":0,"o":""},"†":{"ha":688,"x_min":0,"x_max":0,"o":""},"‡":{"ha":688,"x_min":0,"x_max":0,"o":""},"•":{"ha":694,"x_min":0,"x_max":0,"o":""},"…":{"ha":1389,"x_min":0,"x_max":0,"o":""},"‹":{"ha":428,"x_min":0,"x_max":0,"o":""},"›":{"ha":428,"x_min":0,"x_max":0,"o":""},"⁄":{"ha":232,"x_min":0,"x_max":0,"o":""},"∕":{"ha":232,"x_min":0,"x_max":0,"o":""},"₣":{"ha":688,"x_min":0,"x_max":0,"o":""},"₤":{"ha":688,"x_min":0,"x_max":0,"o":""},"₧":{"ha":1375,"x_min":0,"x_max":0,"o":""},"€":{"ha":688,"x_min":0,"x_max":0,"o":""},"№":{"ha":1540,"x_min":0,"x_max":0,"o":""},"™":{"ha":1015,"x_min":0,"x_max":0,"o":""},"∂":{"ha":688,"x_min":0,"x_max":0,"o":""},"∆":{"ha":733,"x_min":0,"x_max":0,"o":""},"∏":{"ha":1027,"x_min":0,"x_max":0,"o":""},"∑":{"ha":818,"x_min":0,"x_max":0,"o":""},"−":{"ha":688,"x_min":0,"x_max":0,"o":""},"√":{"ha":688,"x_min":0,"x_max":0,"o":""},"∞":{"ha":688,"x_min":0,"x_max":0,"o":""},"∫":{"ha":451,"x_min":0,"x_max":0,"o":""},"≈":{"ha":688,"x_min":0,"x_max":0,"o":""},"≤":{"ha":688,"x_min":0,"x_max":0,"o":""},"≥":{"ha":688,"x_min":0,"x_max":0,"o":""},"":{"ha":728,"x_min":0,"x_max":0,"o":""},"ﬁ":{"ha":728,"x_min":0,"x_max":0,"o":""},"":{"ha":733,"x_min":0,"x_max":0,"o":""},"ﬂ":{"ha":733,"x_min":0,"x_max":0,"o":""}}}
